<?xml version="1.0" encoding="UTF-8" standalone="no"?>
<!DOCTYPE svg PUBLIC "-//W3C//DTD SVG 1.1//EN" "http://www.w3.org/Graphics/SVG/1.1/DTD/svg11.dtd">
<svg width="100%" height="100%" viewBox="0 0 640 512" version="1.1" xmlns="http://www.w3.org/2000/svg" xmlns:xlink="http://www.w3.org/1999/xlink" xml:space="preserve" xmlns:serif="http://www.serif.com/" style="fill-rule:evenodd;clip-rule:evenodd;stroke-linejoin:round;stroke-miterlimit:2;">
    <path d="M260.8,291.06C232.17,268.12 198.8,256 164.4,256C87,256 21.47,318.72 1.43,412.06C-2.12,428.66 1,445.89 10,459.36C18.75,472.47 31.83,480 45.88,480L592,480C488.79,480 437,442.93 358.81,375.54L260.8,291.06ZM495.45,272.77L468.4,116.2C463.157,85.6 436.366,63.009 405.319,63.009C400.843,63.009 396.379,63.478 392,64.41L200.85,105C173.837,110.733 153.441,133.332 150.5,160.79L143.61,226C150.51,225.17 157.31,224 164.4,224C206.19,224 246.4,238.55 281.69,266.82L379.69,351.3C450.76,412.54 494.9,448 592,448C618.332,448 640,426.332 640,400C640,374.61 610.4,280.67 495.45,272.77Z" style="fill:rgb(122,102,248);fill-rule:nonzero;"/>
</svg>
