<svg xmlns="http://www.w3.org/2000/svg" xmlns:xlink="http://www.w3.org/1999/xlink" width="550" height="396" viewBox="0 0 550 396">
  <defs>
    <filter id="Rectangle_7" x="0" y="0" width="550" height="396" filterUnits="userSpaceOnUse">
      <feOffset dy="10" input="SourceAlpha"/>
      <feGaussianBlur stdDeviation="5" result="blur"/>
      <feFlood flood-opacity="0.161"/>
      <feComposite operator="in" in2="blur"/>
      <feComposite in="SourceGraphic"/>
    </filter>
  </defs>
  <g id="Component_2_1" data-name="Component 2 – 1" transform="translate(15 5)">
    <g transform="matrix(1, 0, 0, 1, -15, -5)" filter="url(#Rectangle_7)">
      <rect id="Rectangle_7-2" data-name="Rectangle 7" width="520" height="366" rx="20" transform="translate(15 5)" fill="#fff"/>
    </g>
    <rect id="Rectangle_8" data-name="Rectangle 8" width="30" height="159" rx="15" transform="translate(48 137)" fill="#e6e6e6"/>
    <rect id="Rectangle_9" data-name="Rectangle 9" width="30" height="113" rx="15" transform="translate(113 183)" fill="#e6e6e6"/>
    <rect id="Rectangle_10" data-name="Rectangle 10" width="30" height="168" rx="15" transform="translate(182 126)" fill="#e6e6e6"/>
    <rect id="Rectangle_11" data-name="Rectangle 11" width="30" height="168" rx="15" transform="translate(248 126)" fill="#e6e6e6"/>
    <rect id="Rectangle_12" data-name="Rectangle 12" width="30" height="157" rx="15" transform="translate(312 137)" fill="#e6e6e6"/>
    <rect id="Rectangle_13" data-name="Rectangle 13" width="30" height="177" rx="15" transform="translate(377 117)" fill="#e6e6e6"/>
    <rect id="Rectangle_14" data-name="Rectangle 14" width="30" height="197" rx="15" transform="translate(443 97)" fill="#f51084"/>
    <text id="Social_gaining" data-name="Social gaining" transform="translate(47 65)" fill="#141e1e" font-size="20" font-family="OpenSans-Bold, Open Sans" font-weight="700"><tspan x="0" y="0">Social gaining</tspan></text>
    <text id="Last_7_days" data-name="Last 7 days" transform="translate(47 86)" fill="#a0a0a0" font-size="14" font-family="OpenSans-SemiBold, Open Sans" font-weight="600"><tspan x="0" y="0">Last 7 days</tspan></text>
    <text id="Mo" transform="translate(47 320)" fill="#141e1e" font-size="20" font-family="OpenSans-Bold, Open Sans" font-weight="700"><tspan x="0" y="0">Mo</tspan></text>
    <text id="Tu" transform="translate(116 320)" fill="#141e1e" font-size="20" font-family="OpenSans-Bold, Open Sans" font-weight="700"><tspan x="0" y="0">Tu</tspan></text>
    <text id="Wd" transform="translate(181 320)" fill="#141e1e" font-size="20" font-family="OpenSans-Bold, Open Sans" font-weight="700"><tspan x="0" y="0">Wd</tspan></text>
    <text id="Th" transform="translate(251 320)" fill="#141e1e" font-size="20" font-family="OpenSans-Bold, Open Sans" font-weight="700"><tspan x="0" y="0">Th</tspan></text>
    <text id="Fr" transform="translate(317 320)" fill="#141e1e" font-size="20" font-family="OpenSans-Bold, Open Sans" font-weight="700"><tspan x="0" y="0">Fr</tspan></text>
    <text id="Sa" transform="translate(381 320)" fill="#141e1e" font-size="20" font-family="OpenSans-Bold, Open Sans" font-weight="700"><tspan x="0" y="0">Sa</tspan></text>
    <text id="Su" transform="translate(446 320)" fill="#141e1e" font-size="20" font-family="OpenSans-Bold, Open Sans" font-weight="700"><tspan x="0" y="0">Su</tspan></text>
  </g>
</svg>
